# xmcd
#
# Track frame offsets:
#        150
#        17597
#        33305
#        67547
#
# Disc length: 1144 seconds
#
# Revision: 0
# Processed by: cddbd v1.5PL3 Copyright (c) Steve Scherf et al.
# Submitted via: ExactAudioCopy v0.95a5
#
DISCID=20047604
DTITLE=Britney Spears - I'm Not a Girl, Not Yet a Woman
DYEAR=2002
DGENRE=
TTITLE0=I'm Not a Girl, Not Yet a Woman (Album Version)
TTITLE1=I'm Not a Girl, Not Yet a Woman (Spanish Fly Remix Radio Edit)
TTITLE2=I'm Not a Girl, Not Yet a Woman (Chocolate Puma Dub)
TTITLE3=I Run Away (Album Version)
EXTD=
EXTT0=
EXTT1=
EXTT2=
EXTT3=
PLAYORDER=
